<?xml version='1.0' encoding='utf-8'?>
<svg xmlns="http://www.w3.org/2000/svg" version="1.1" id="Ebene_1" x="0px" y="0px" viewBox="0 0 535.9 561.4" style="enable-background:new 0 0 535.9 561.4;"> <style type="text/css"> .st0{fill:#F9F9F9;} .st1{fill:#FBFBFB;} .st2{fill:#FAFAFA;} .st3{fill:#F9FAFA;} .st4{fill:#FCFBFB;} .st5{fill:#FBFAFA;} </style> <path d="M515.7,305.7c-3.7-28.4-11.5-55.7-21.2-82.6c-4.3-11.8-10.2-22.8-11.3-35.9c-1.7-20.2-10-39-16.3-58.1 c-8.4-25.1-18.4-49.7-28.9-74c-4.8-11.2-9.5-22.4-16.4-32.5C416.4,15,410,9.2,399.8,10c-6.4,0.5-11.3,3.6-15.7,7.8 c-16.3,15.5-26.9,35.1-37.9,54.3c-8.3,14.5-16.1,29.2-22.8,44.5c-1.8,4-4.4,5.4-8.7,4.4c-2.7-0.6-5.5-1.8-8.2,0.1 c-12.8-0.7-25.7-1.1-38.5-1.2c-12.8,0-25.7,0.4-38.5,1.2c-2.7-1.9-5.5-0.7-8.2-0.1c-4.3,1-6.9-0.4-8.7-4.4 c-6.7-15.3-14.5-30-22.8-44.5c-11-19.2-21.6-38.7-37.9-54.3c-4.4-4.2-9.3-7.4-15.7-7.8c-10.2-0.8-16.6,5-21.8,12.5 c-6.9,10.1-11.7,21.3-16.4,32.5c-10.4,24.3-20.5,48.9-28.9,74c-6.4,19.1-14.7,37.9-16.3,58.1c-1.1,13.2-7,24.1-11.3,35.9 c-9.7,26.9-17.6,54.3-21.2,82.6c-4.6,35.6-0.4,70,14.9,102.9c12,25.8,28.8,47.8,50.1,66.5c2.4,2.1,4.5,4.5,7,6.4 c3.8,3,5.4,2.8,8.2-1c6.6-9,14-17.3,22-25.2c18.2-18,39.3-31.3,64-38.5c6.3-1.9,6.9-1.4,8.3,5.2c1.8,8.5,4.4,16.8,8.5,24.5 c5.1,9.6,12.6,16.6,22.6,21c16,7.1,35.3-1.5,40.1-15c0.3-0.9,0.6-1.9,1.7-2.3c0.1,0.1,0.2,0.2,0.3,0.3c0.1-0.1,0.2-0.2,0.3-0.3 c1.1,0.4,1.4,1.5,1.7,2.3c4.9,13.4,24.1,22.1,40.1,15c10-4.4,17.5-11.4,22.6-21c4.1-7.7,6.6-16,8.5-24.5c1.4-6.6,2-7.1,8.3-5.2 c24.7,7.3,45.7,20.5,64,38.5c8,7.9,15.3,16.2,22,25.2c2.8,3.9,4.4,4,8.2,1c2.5-2,4.6-4.4,7-6.4c21.4-18.7,38.1-40.7,50.1-66.5 C516.1,375.7,520.3,341.3,515.7,305.7z"/> <path class="st0" d="M381.3,302.6c15,0.1,29,4.7,40.5,15.9c16.8,16.5,18.6,40.7,4.3,59.3c-17.5,22.8-54.2,30.5-79,16.1 c-15.5-9-24.3-22.6-24.2-40.9c0.1-19.4,9.9-33.4,26.5-42.7C358.9,304.9,369.5,302.9,381.3,302.6z"/> <path class="st1" d="M329.3,433.5c-2.1,14.9-18.3,28.6-32.9,28.2c-10.5-0.3-18.9-6.9-22.1-17.8c-2.6-9-3.4-18.3-3.2-27.6 c0.1-1.8,0.3-3.6,1.5-5.2c1.8-2.5,3.3-3.8,5.8-0.2c11.8,17.1,27.4,26.3,48.9,22.5C328,433.3,328.6,433.4,329.3,433.5z"/> <path d="M381.6,314c13.4,0.8,27.4,5.1,36.4,19.1c7,11,7.6,22.3,0.6,33.9c-10.4,17.3-35.7,27.1-54.9,21.1 c-16.3-5.2-27.2-18.6-27.7-34.1c-0.5-15.8,9.1-29.7,24.9-36.2C366.8,315.3,372.9,314.1,381.6,314z"/> <path class="st2" d="M353.8,365.3c-7.5-0.1-14.6-7.2-14.7-14.8c-0.1-7.6,7.2-14.4,15.5-14.5c7.1,0,13.9,7.3,14,14.8 C368.6,358.5,361.6,365.4,353.8,365.3z"/> <path class="st3" d="M386.8,350.2c0.2-7.5,7.2-13.9,14.9-13.7c7.9,0.3,14.5,7,14.2,14.4c-0.4,7.4-8,14.5-15.4,14.3 C393.2,365.1,386.6,357.9,386.8,350.2z"/> <path class="st4" d="M535.9,335.2c-0.8-38.1-9.3-74.6-24.4-109.5c-5.4-12.4-5.7-11.4-11.2-26.4c-1.5-4.2-3.7-19.5-7.6-33.9 c-2.4-8.6-6.6-21.3-11.6-38.8c-8.8-31.1-22.6-60.1-37.7-88.6c-5.6-10.4-11-21-19.6-29.4c-10.1-9.9-21.5-11.3-33.7-4 c-9.6,5.7-17.3,13.6-24.6,21.8c-24.3,27.2-41.9,58.7-58.4,90.9c-0.6,1.2-1,2.4-0.6,3.8c3.1,0.4,6.5,0.3,9.4,1.4 c4.7,1.8,6.5-0.5,8.2-4.3c9.7-21.2,20.7-41.8,32.7-61.7c8.1-13.4,16.4-26.7,28-37.5c12.7-12,25.5-10.4,35.3,3.9 c3.9,5.6,7.2,11.6,10.1,17.8c17.6,39,33,78.9,45.6,119.8c3.8,12.4,7.4,24.9,7.4,38.1c0,1.4,0.6,2.9,1.3,4.2 c16.3,35.4,26.8,72.5,30.8,111.1c4.1,39.6-4.2,76.8-24.4,111.2c-12.4,21-28.7,38.7-47,54.7c-3.7,3.2-5,2.8-7.8-0.8 c-14.3-18.8-30.7-35.5-51.1-48c-11.9-7.3-24.6-12.9-38.1-16.5c-3.9-1-6.2-0.7-6.5,4.2c-0.4,5.8-2.3,11.4-4.3,16.9 c-4.2,11.8-10.6,21.8-21.7,28.3c-16.5,9.6-34.9,4.3-43.6-12.6c-0.8-1.5-1.6-3.1-2.7-5.1c0,0.1-0.1,0.2-0.1,0.3 c0-0.1-0.1-0.2-0.1-0.3c-1.1,2-1.9,3.6-2.7,5.1c-8.7,16.9-27.1,22.3-43.6,12.6c-11.1-6.5-17.5-16.6-21.7-28.3 c-2-5.5-3.9-11.1-4.3-16.9c-0.3-4.9-2.6-5.3-6.5-4.2c-13.5,3.6-26.2,9.2-38.1,16.5c-20.3,12.4-36.8,29.1-51.1,48 c-2.8,3.6-4.1,4.1-7.8,0.8c-18.3-16-34.6-33.7-47-54.7c-20.2-34.4-28.6-71.6-24.4-111.2c4-38.7,14.6-75.8,30.8-111.1 c0.6-1.3,1.3-2.8,1.3-4.2c0-13.2,3.6-25.7,7.4-38.1c12.6-40.9,28-80.8,45.6-119.8c2.8-6.2,6.2-12.2,10.1-17.8 c9.8-14.3,22.5-15.8,35.3-3.9c11.5,10.8,19.9,24.1,28,37.5c12,20,23,40.5,32.7,61.7c1.7,3.8,3.5,6.1,8.2,4.3c2.9-1.1,6.2-1,9.4-1.4 c0.4-1.4,0-2.6-0.6-3.8c-16.5-32.2-34.2-63.7-58.4-90.9c-7.3-8.2-15-16.1-24.6-21.8c-12.2-7.2-23.6-5.9-33.7,4 c-8.6,8.4-14,19-19.6,29.4c-15.1,28.4-28.9,57.5-37.7,88.6c-5,17.6-9.2,30.2-11.6,38.8c-4,14.4-6.1,29.7-7.6,33.9 c-5.5,15-5.8,14-11.2,26.4C9.3,260.6,0.8,297.1,0,335.2c-0.7,35.2,10.6,66.9,28.4,96.9c24.3,40.8,58.9,70,100.4,91.8 c29.5,15.5,60.4,27.2,93.2,33.4c15.4,2.9,30.7,4.2,45.9,4.1c15.1,0.1,30.4-1.2,45.9-4.1c32.9-6.2,63.7-18,93.2-33.4 c41.5-21.7,76.2-50.9,100.4-91.8C525.3,402.1,536.6,370.4,535.9,335.2z"/> <path class="st0" d="M154.6,302.6c-15,0.1-29,4.7-40.5,15.9c-16.8,16.5-18.6,40.7-4.3,59.3c17.5,22.8,54.2,30.5,79,16.1 c15.5-9,24.3-22.6,24.2-40.9c-0.1-19.4-9.9-33.4-26.5-42.7C177,304.9,166.4,302.9,154.6,302.6z"/> <path class="st1" d="M206.6,433.5c2.1,14.9,18.3,28.6,32.9,28.2c10.5-0.3,18.9-6.9,22.1-17.8c2.6-9,3.4-18.3,3.2-27.6 c-0.1-1.8-0.3-3.6-1.5-5.2c-1.8-2.5-3.3-3.8-5.8-0.2c-11.8,17.1-27.4,26.3-48.9,22.5C207.9,433.3,207.3,433.4,206.6,433.5z"/> <path d="M154.4,314c-13.4,0.8-27.4,5.1-36.4,19.1c-7,11-7.6,22.3-0.6,33.9c10.4,17.3,35.7,27.1,54.9,21.1 c16.3-5.2,27.2-18.6,27.7-34.1c0.5-15.8-9.1-29.7-24.9-36.2C169.2,315.3,163,314.1,154.4,314z"/> <path class="st2" d="M182.1,365.3c7.5-0.1,14.6-7.2,14.7-14.8c0.1-7.6-7.2-14.4-15.5-14.5c-7.1,0-13.9,7.3-14,14.8 C167.3,358.5,174.3,365.4,182.1,365.3z"/> <path class="st3" d="M149.1,350.2c-0.2-7.5-7.2-13.9-14.9-13.7c-7.9,0.3-14.5,7-14.2,14.4c0.4,7.4,8,14.5,15.4,14.3 C142.8,365.1,149.3,357.9,149.1,350.2z"/> <path class="st5" d="M289.8,378.4c-6.8-2.7-13.9-3.7-21.8-4c-7.9,0.2-15,1.2-21.8,4c-4.2,1.7-4.7,3.4-1.5,6.5 c6.9,6.8,13.9,13.4,20.9,20c0.7,0.7,1.4,1.5,2.4,1.3c1,0.1,1.7-0.6,2.4-1.3c7-6.6,14.1-13.2,20.9-20 C294.4,381.8,294,380.1,289.8,378.4z"/> </svg>